<?xml version="1.0" encoding="UTF-8"?>
<!DOCTYPE svg PUBLIC "-//W3C//DTD SVG 1.1//EN" "http://www.w3.org/Graphics/SVG/1.1/DTD/svg11.dtd">
<!-- Creator: CorelDRAW 2020 (64-Bit) -->
<svg xmlns="http://www.w3.org/2000/svg" xml:space="preserve" width="1597px" height="1086px" version="1.1" style="shape-rendering:geometricPrecision; text-rendering:geometricPrecision; image-rendering:optimizeQuality; fill-rule:evenodd; clip-rule:evenodd"
viewBox="0 0 1420.17 965.27"
 xmlns:xlink="http://www.w3.org/1999/xlink"
 xmlns:xodm="http://www.corel.com/coreldraw/odm/2003">
 <defs>
  <style type="text/css">
   <![CDATA[
    .fil0 {fill:black;fill-rule:nonzero}
   ]]>
  </style>
 </defs>
 <g id="Layer_x0020_1">
  <metadata id="CorelCorpID_0Corel-Layer"/>
  <g id="_2127488520640">
   <path class="fil0" d="M4.44 629.24c-30.09,185.59 95.95,336.03 281.53,336.03 185.58,0 360.42,-150.44 390.51,-336.03 30.1,-185.58 -95.95,-336.01 -281.53,-336.01 -38.14,0 -75.73,6.65 -111.81,18.36 39.56,-117.55 96.57,-223.76 151.69,-311.59l-162.67 0c-222.58,269.24 -266.66,620.85 -267.63,628.79 -0.02,0.15 -0.06,0.28 -0.09,0.45z"/>
   <path class="fil0" d="M743.68 629.24c-30.09,185.59 95.95,336.03 281.53,336.03 185.59,0 360.42,-150.44 390.51,-336.03 30.1,-185.58 -95.95,-336.01 -281.53,-336.01 -38.14,0 -75.73,6.64 -111.81,18.36 39.56,-117.55 96.57,-223.76 151.69,-311.59l-162.67 0c-222.58,269.24 -266.66,620.85 -267.63,628.79 -0.02,0.15 -0.06,0.28 -0.09,0.45z"/>
  </g>
 </g>
</svg>
