<?xml version="1.0" encoding="UTF-8"?>
<!DOCTYPE svg PUBLIC "-//W3C//DTD SVG 1.1//EN" "http://www.w3.org/Graphics/SVG/1.1/DTD/svg11.dtd">
<!-- Creator: CorelDRAW 2020 (64-Bit) -->
<svg xmlns="http://www.w3.org/2000/svg" xml:space="preserve" width="417px" height="94px" version="1.1" style="shape-rendering:geometricPrecision; text-rendering:geometricPrecision; image-rendering:optimizeQuality; fill-rule:evenodd; clip-rule:evenodd"
viewBox="0 0 87.85 19.82"
 xmlns:xlink="http://www.w3.org/1999/xlink"
 xmlns:xodm="http://www.corel.com/coreldraw/odm/2003">
 <defs>
  <style type="text/css">
   <![CDATA[
    .str0 {stroke:#2584FF;stroke-width:6.58;stroke-linecap:round;stroke-linejoin:round;stroke-miterlimit:22.9256}
    .str1 {stroke:#FF3400;stroke-width:6.58;stroke-linecap:round;stroke-linejoin:round;stroke-miterlimit:22.9256}
    .fil0 {fill:#2584FF}
    .fil1 {fill:#FF3400}
    .fil2 {fill:white;fill-rule:nonzero}
   ]]>
  </style>
 </defs>
 <g id="Layer_x0020_1">
  <metadata id="CorelCorpID_0Corel-Layer"/>
  <g id="logo.svg">
   <polygon id="Polygon_1_copy_2" class="fil0 str0" points="13.6,11.53 3.29,16.53 7.39,3.29 " data-name="Polygon 1 copy 2"/>
   <polygon id="Polygon_1_copy_2-2" class="fil1 str1" points="10.01,11.53 20.32,16.53 16.23,3.29 " data-name="Polygon 1 copy 2"/>
   <path class="fil2" d="M36.72 6.79c-0.08,-0.27 -0.19,-0.52 -0.33,-0.73 -0.14,-0.21 -0.31,-0.39 -0.52,-0.54 -0.2,-0.14 -0.43,-0.26 -0.69,-0.33 -0.26,-0.08 -0.55,-0.12 -0.86,-0.12 -0.59,0 -1.1,0.14 -1.54,0.44 -0.45,0.29 -0.79,0.71 -1.04,1.27 -0.24,0.55 -0.37,1.23 -0.37,2.03 0,0.79 0.13,1.47 0.37,2.03 0.24,0.56 0.58,0.99 1.03,1.28 0.44,0.3 0.97,0.44 1.57,0.44 0.55,0 1.02,-0.1 1.41,-0.29 0.39,-0.2 0.69,-0.47 0.9,-0.83 0.19,-0.34 0.3,-0.74 0.31,-1.2l-2.47 0 0 -1.83 4.8 0 0 1.45c0,1.01 -0.21,1.87 -0.63,2.59 -0.43,0.73 -1.02,1.28 -1.76,1.67 -0.75,0.39 -1.61,0.59 -2.57,0.59 -1.07,0 -2.02,-0.24 -2.83,-0.72 -0.82,-0.47 -1.45,-1.15 -1.91,-2.03 -0.45,-0.88 -0.67,-1.92 -0.67,-3.13 0,-0.93 0.13,-1.76 0.4,-2.49 0.27,-0.73 0.65,-1.35 1.14,-1.86 0.49,-0.51 1.06,-0.89 1.71,-1.16 0.65,-0.26 1.35,-0.4 2.11,-0.4 0.65,0 1.26,0.1 1.82,0.29 0.55,0.19 1.05,0.45 1.49,0.8 0.43,0.34 0.79,0.75 1.07,1.22 0.27,0.47 0.45,0.99 0.53,1.56l-2.47 0zm8.24 7.93c-0.87,0 -1.63,-0.19 -2.26,-0.56 -0.63,-0.37 -1.12,-0.89 -1.46,-1.55 -0.35,-0.67 -0.52,-1.44 -0.52,-2.33 0,-0.89 0.17,-1.66 0.52,-2.33 0.34,-0.67 0.83,-1.18 1.46,-1.56 0.63,-0.37 1.39,-0.55 2.26,-0.55 0.87,0 1.62,0.18 2.25,0.55 0.63,0.38 1.12,0.89 1.47,1.56 0.34,0.67 0.51,1.44 0.51,2.33 0,0.89 -0.17,1.66 -0.51,2.33 -0.35,0.66 -0.84,1.18 -1.47,1.55 -0.63,0.37 -1.38,0.56 -2.25,0.56zm0.01 -1.85c0.39,0 0.72,-0.11 0.99,-0.34 0.26,-0.22 0.46,-0.53 0.6,-0.93 0.14,-0.39 0.2,-0.83 0.2,-1.33 0,-0.5 -0.06,-0.95 -0.2,-1.34 -0.14,-0.39 -0.34,-0.7 -0.6,-0.93 -0.27,-0.23 -0.6,-0.34 -0.99,-0.34 -0.4,0 -0.74,0.11 -1.01,0.34 -0.27,0.23 -0.47,0.54 -0.61,0.93 -0.13,0.39 -0.2,0.84 -0.2,1.34 0,0.5 0.07,0.94 0.2,1.33 0.14,0.4 0.34,0.71 0.61,0.93 0.27,0.23 0.61,0.34 1.01,0.34zm12.94 -4.47l-2.19 0.14c-0.04,-0.19 -0.12,-0.36 -0.24,-0.51 -0.12,-0.15 -0.29,-0.27 -0.48,-0.37 -0.2,-0.09 -0.44,-0.13 -0.72,-0.13 -0.37,0 -0.68,0.08 -0.93,0.23 -0.26,0.15 -0.38,0.36 -0.38,0.62 0,0.2 0.08,0.38 0.24,0.52 0.17,0.14 0.45,0.25 0.85,0.34l1.56 0.31c0.83,0.18 1.45,0.45 1.86,0.84 0.42,0.38 0.62,0.88 0.62,1.5 0,0.56 -0.16,1.06 -0.49,1.48 -0.33,0.42 -0.79,0.76 -1.36,0.99 -0.57,0.24 -1.23,0.36 -1.98,0.36 -1.14,0 -2.05,-0.24 -2.72,-0.72 -0.67,-0.47 -1.07,-1.12 -1.18,-1.94l2.34 -0.12c0.07,0.34 0.25,0.61 0.52,0.79 0.27,0.18 0.62,0.27 1.05,0.27 0.42,0 0.75,-0.08 1.01,-0.24 0.25,-0.17 0.38,-0.38 0.39,-0.64 -0.01,-0.21 -0.1,-0.39 -0.28,-0.53 -0.18,-0.14 -0.45,-0.25 -0.83,-0.32l-1.49 -0.3c-0.84,-0.16 -1.46,-0.46 -1.87,-0.87 -0.41,-0.42 -0.61,-0.95 -0.61,-1.59 0,-0.55 0.15,-1.02 0.45,-1.42 0.3,-0.4 0.72,-0.71 1.27,-0.93 0.55,-0.21 1.19,-0.32 1.92,-0.32 1.09,0 1.95,0.23 2.57,0.69 0.63,0.45 0.99,1.08 1.1,1.87zm4.09 1.18l0 4.97 -2.39 0 0 -11.47 2.32 0 0 4.39 0.1 0c0.19,-0.51 0.51,-0.91 0.94,-1.2 0.43,-0.29 0.98,-0.43 1.63,-0.43 0.6,0 1.12,0.13 1.56,0.39 0.45,0.25 0.8,0.63 1.05,1.11 0.24,0.48 0.37,1.06 0.36,1.73l0 5.48 -2.38 0 0 -5.05c0,-0.53 -0.13,-0.94 -0.4,-1.24 -0.27,-0.29 -0.65,-0.44 -1.14,-0.44 -0.32,0 -0.61,0.07 -0.86,0.21 -0.25,0.13 -0.44,0.34 -0.58,0.6 -0.14,0.26 -0.21,0.58 -0.21,0.95zm7.46 4.97l0 -8.6 2.38 0 0 8.6 -2.38 0zm1.2 -9.71c-0.35,0 -0.66,-0.12 -0.91,-0.36 -0.25,-0.23 -0.38,-0.52 -0.38,-0.85 0,-0.33 0.13,-0.61 0.38,-0.85 0.25,-0.24 0.56,-0.35 0.91,-0.35 0.36,0 0.66,0.11 0.91,0.35 0.26,0.24 0.38,0.52 0.38,0.85 0,0.33 -0.12,0.62 -0.38,0.85 -0.25,0.24 -0.55,0.36 -0.91,0.36zm7.71 1.11l0 1.79 -1.71 0 0 6.81 -2.38 0 0 -6.81 -1.22 0 0 -1.79 1.22 0 0 -0.62c0,-0.63 0.12,-1.14 0.36,-1.55 0.25,-0.42 0.59,-0.72 1.01,-0.93 0.43,-0.2 0.91,-0.31 1.45,-0.31 0.37,0 0.7,0.03 1.01,0.09 0.3,0.05 0.53,0.1 0.68,0.15l-0.43 1.79c-0.09,-0.03 -0.21,-0.06 -0.34,-0.08 -0.14,-0.03 -0.28,-0.04 -0.42,-0.04 -0.35,0 -0.6,0.08 -0.73,0.24 -0.14,0.16 -0.21,0.39 -0.21,0.68l0 0.58 1.71 0zm2.93 11.81c-0.3,0 -0.58,-0.02 -0.85,-0.07 -0.26,-0.04 -0.48,-0.1 -0.65,-0.17l0.54 -1.79c0.42,0.13 0.78,0.17 1.07,0.11 0.28,-0.06 0.51,-0.29 0.68,-0.68l0.14 -0.36 -3.09 -8.85 2.51 0 1.78 6.32 0.1 0 1.79 -6.32 2.53 0.01 -3.35 9.52c-0.16,0.46 -0.37,0.86 -0.65,1.2 -0.27,0.34 -0.62,0.61 -1.04,0.8 -0.41,0.19 -0.92,0.28 -1.51,0.28z"/>
  </g>
 </g>
</svg>
