<?xml version="1.0" encoding="UTF-8"?>
<!DOCTYPE svg PUBLIC "-//W3C//DTD SVG 1.1//EN" "http://www.w3.org/Graphics/SVG/1.1/DTD/svg11.dtd">
<!-- Creator: CorelDRAW 2020 (64-Bit) -->
<svg xmlns="http://www.w3.org/2000/svg" xml:space="preserve" width="1600px" height="1600px" version="1.1" style="shape-rendering:geometricPrecision; text-rendering:geometricPrecision; image-rendering:optimizeQuality; fill-rule:evenodd; clip-rule:evenodd"
viewBox="0 0 1600 1600"
 xmlns:xlink="http://www.w3.org/1999/xlink"
 xmlns:xodm="http://www.corel.com/coreldraw/odm/2003">
 <defs>
  <style type="text/css">
   <![CDATA[
    .fil0 {fill:#FEFEFE;fill-rule:nonzero}
   ]]>
  </style>
 </defs>
 <g id="Layer_x0020_1">
  <metadata id="CorelCorpID_0Corel-Layer"/>
  <g id="_3202763223808">
   <path class="fil0" d="M1433.33 1600l-1266.66 0c-91.94,0 -166.67,-74.8 -166.67,-166.67l0 -1266.66c0,-91.87 74.73,-166.67 166.67,-166.67l1266.66 0c91.94,0 166.67,74.8 166.67,166.67l0 1266.66c0,91.87 -74.73,166.67 -166.67,166.67zm-1266.66 -1533.33c-55.14,0 -100,44.86 -100,100l0 1266.66c0,55.14 44.86,100 100,100l1266.66 0c55.14,0 100,-44.86 100,-100l0 -1266.66c0,-55.14 -44.86,-100 -100,-100l-1266.66 0z"/>
  </g>
  <g id="_3202763227936">
   <path class="fil0" d="M1100 533.33l-600 0c-18.4,0 -33.33,-14.93 -33.33,-33.33 0,-18.4 14.93,-33.33 33.33,-33.33l600 0c18.4,0 33.33,14.93 33.33,33.33 0,18.4 -14.93,33.33 -33.33,33.33z"/>
  </g>
  <g id="_3202763228848">
   <path class="fil0" d="M1100 833.33l-600 0c-18.4,0 -33.33,-14.93 -33.33,-33.33 0,-18.4 14.93,-33.33 33.33,-33.33l600 0c18.4,0 33.33,14.93 33.33,33.33 0,18.4 -14.93,33.33 -33.33,33.33z"/>
  </g>
  <g id="_3202763231872">
   <path class="fil0" d="M1100 1133.33l-600 0c-18.4,0 -33.33,-14.93 -33.33,-33.33 0,-18.4 14.93,-33.33 33.33,-33.33l600 0c18.4,0 33.33,14.93 33.33,33.33 0,18.4 -14.93,33.33 -33.33,33.33z"/>
  </g>
 </g>
</svg>
